<mxfile host="app.diagrams.net" modified="2023-05-09T14:11:23.626Z" agent="Mozilla/5.0 (Macintosh; Intel Mac OS X 10_15_7) AppleWebKit/537.36 (KHTML, like Gecko) Chrome/112.0.0.0 Safari/537.36" etag="OzFnMEonjcL8qyb6rn4e" version="21.2.9" type="github">
  <diagram name="第 1 页" id="Pzz4Q9QrGixZpusPEQ9X">
    <mxGraphModel dx="2261" dy="796" grid="1" gridSize="10" guides="1" tooltips="1" connect="1" arrows="1" fold="1" page="1" pageScale="1" pageWidth="827" pageHeight="1169" math="0" shadow="0">
      <root>
        <mxCell id="0" />
        <mxCell id="1" parent="0" />
        <mxCell id="o08fIgoM3E5RgiDcFMRu-1" value="Payment Network R&amp;amp;D Team" style="rounded=0;whiteSpace=wrap;html=1;" vertex="1" parent="1">
          <mxGeometry x="494" y="180" width="226" height="60" as="geometry" />
        </mxCell>
        <mxCell id="o08fIgoM3E5RgiDcFMRu-49" style="edgeStyle=orthogonalEdgeStyle;rounded=0;orthogonalLoop=1;jettySize=auto;html=1;entryX=0.5;entryY=1;entryDx=0;entryDy=0;" edge="1" parent="1" source="o08fIgoM3E5RgiDcFMRu-3" target="o08fIgoM3E5RgiDcFMRu-1">
          <mxGeometry relative="1" as="geometry">
            <Array as="points">
              <mxPoint x="190" y="270" />
              <mxPoint x="607" y="270" />
            </Array>
          </mxGeometry>
        </mxCell>
        <mxCell id="o08fIgoM3E5RgiDcFMRu-3" value="Afric" style="rounded=0;whiteSpace=wrap;html=1;" vertex="1" parent="1">
          <mxGeometry x="130" y="280" width="120" height="60" as="geometry" />
        </mxCell>
        <mxCell id="o08fIgoM3E5RgiDcFMRu-50" style="edgeStyle=orthogonalEdgeStyle;rounded=0;orthogonalLoop=1;jettySize=auto;html=1;entryX=0.5;entryY=1;entryDx=0;entryDy=0;" edge="1" parent="1" source="o08fIgoM3E5RgiDcFMRu-5" target="o08fIgoM3E5RgiDcFMRu-1">
          <mxGeometry relative="1" as="geometry">
            <Array as="points">
              <mxPoint x="1000" y="270" />
              <mxPoint x="607" y="270" />
            </Array>
          </mxGeometry>
        </mxCell>
        <mxCell id="o08fIgoM3E5RgiDcFMRu-5" value="China" style="rounded=0;whiteSpace=wrap;html=1;" vertex="1" parent="1">
          <mxGeometry x="940" y="280" width="120" height="60" as="geometry" />
        </mxCell>
        <mxCell id="o08fIgoM3E5RgiDcFMRu-48" style="edgeStyle=orthogonalEdgeStyle;rounded=0;orthogonalLoop=1;jettySize=auto;html=1;entryX=0.5;entryY=1;entryDx=0;entryDy=0;" edge="1" parent="1" source="o08fIgoM3E5RgiDcFMRu-7" target="o08fIgoM3E5RgiDcFMRu-3">
          <mxGeometry relative="1" as="geometry">
            <Array as="points">
              <mxPoint x="-90" y="360" />
              <mxPoint x="190" y="360" />
            </Array>
          </mxGeometry>
        </mxCell>
        <mxCell id="o08fIgoM3E5RgiDcFMRu-7" value="Nigeria" style="rounded=0;whiteSpace=wrap;html=1;" vertex="1" parent="1">
          <mxGeometry x="-150" y="370" width="120" height="60" as="geometry" />
        </mxCell>
        <mxCell id="o08fIgoM3E5RgiDcFMRu-47" style="edgeStyle=orthogonalEdgeStyle;rounded=0;orthogonalLoop=1;jettySize=auto;html=1;entryX=0.5;entryY=1;entryDx=0;entryDy=0;" edge="1" parent="1" source="o08fIgoM3E5RgiDcFMRu-9" target="o08fIgoM3E5RgiDcFMRu-3">
          <mxGeometry relative="1" as="geometry">
            <Array as="points">
              <mxPoint x="490" y="360" />
              <mxPoint x="190" y="360" />
            </Array>
          </mxGeometry>
        </mxCell>
        <mxCell id="o08fIgoM3E5RgiDcFMRu-9" value="Ghana" style="rounded=0;whiteSpace=wrap;html=1;" vertex="1" parent="1">
          <mxGeometry x="430" y="370" width="120" height="60" as="geometry" />
        </mxCell>
        <mxCell id="o08fIgoM3E5RgiDcFMRu-45" style="edgeStyle=orthogonalEdgeStyle;rounded=0;orthogonalLoop=1;jettySize=auto;html=1;entryX=0.5;entryY=1;entryDx=0;entryDy=0;" edge="1" parent="1" source="o08fIgoM3E5RgiDcFMRu-11" target="o08fIgoM3E5RgiDcFMRu-5">
          <mxGeometry relative="1" as="geometry">
            <Array as="points">
              <mxPoint x="785" y="360" />
              <mxPoint x="1000" y="360" />
            </Array>
          </mxGeometry>
        </mxCell>
        <mxCell id="o08fIgoM3E5RgiDcFMRu-11" value="C-Side Channel R&amp;amp;D Team" style="rounded=0;whiteSpace=wrap;html=1;" vertex="1" parent="1">
          <mxGeometry x="670" y="370" width="230" height="60" as="geometry" />
        </mxCell>
        <mxCell id="o08fIgoM3E5RgiDcFMRu-46" style="edgeStyle=orthogonalEdgeStyle;rounded=0;orthogonalLoop=1;jettySize=auto;html=1;entryX=0.5;entryY=1;entryDx=0;entryDy=0;" edge="1" parent="1" source="o08fIgoM3E5RgiDcFMRu-13" target="o08fIgoM3E5RgiDcFMRu-5">
          <mxGeometry relative="1" as="geometry">
            <Array as="points">
              <mxPoint x="1200" y="360" />
              <mxPoint x="1000" y="360" />
            </Array>
          </mxGeometry>
        </mxCell>
        <mxCell id="o08fIgoM3E5RgiDcFMRu-13" value="B-Side Channel R&amp;amp;D Team" style="rounded=0;whiteSpace=wrap;html=1;" vertex="1" parent="1">
          <mxGeometry x="1100" y="370" width="199" height="60" as="geometry" />
        </mxCell>
        <mxCell id="o08fIgoM3E5RgiDcFMRu-51" style="edgeStyle=orthogonalEdgeStyle;rounded=0;orthogonalLoop=1;jettySize=auto;html=1;entryX=0.5;entryY=1;entryDx=0;entryDy=0;" edge="1" parent="1" source="o08fIgoM3E5RgiDcFMRu-14" target="o08fIgoM3E5RgiDcFMRu-7">
          <mxGeometry relative="1" as="geometry">
            <Array as="points">
              <mxPoint x="-375" y="480" />
              <mxPoint x="-90" y="480" />
            </Array>
          </mxGeometry>
        </mxCell>
        <mxCell id="o08fIgoM3E5RgiDcFMRu-14" value="Aishat Moshood" style="shape=umlActor;verticalLabelPosition=bottom;verticalAlign=top;html=1;outlineConnect=0;" vertex="1" parent="1">
          <mxGeometry x="-390" y="510" width="30" height="60" as="geometry" />
        </mxCell>
        <mxCell id="o08fIgoM3E5RgiDcFMRu-52" style="edgeStyle=orthogonalEdgeStyle;rounded=0;orthogonalLoop=1;jettySize=auto;html=1;entryX=0.5;entryY=1;entryDx=0;entryDy=0;" edge="1" parent="1" source="o08fIgoM3E5RgiDcFMRu-15" target="o08fIgoM3E5RgiDcFMRu-7">
          <mxGeometry relative="1" as="geometry">
            <Array as="points">
              <mxPoint x="-295" y="480" />
              <mxPoint x="-90" y="480" />
            </Array>
          </mxGeometry>
        </mxCell>
        <mxCell id="o08fIgoM3E5RgiDcFMRu-15" value="Jacob Ajao" style="shape=umlActor;verticalLabelPosition=bottom;verticalAlign=top;html=1;outlineConnect=0;" vertex="1" parent="1">
          <mxGeometry x="-310" y="510" width="30" height="60" as="geometry" />
        </mxCell>
        <mxCell id="o08fIgoM3E5RgiDcFMRu-53" style="edgeStyle=orthogonalEdgeStyle;rounded=0;orthogonalLoop=1;jettySize=auto;html=1;entryX=0.5;entryY=1;entryDx=0;entryDy=0;" edge="1" parent="1" source="o08fIgoM3E5RgiDcFMRu-18" target="o08fIgoM3E5RgiDcFMRu-7">
          <mxGeometry relative="1" as="geometry">
            <Array as="points">
              <mxPoint x="-205" y="480" />
              <mxPoint x="-90" y="480" />
            </Array>
          </mxGeometry>
        </mxCell>
        <mxCell id="o08fIgoM3E5RgiDcFMRu-18" value="EmmanuelIrabor" style="shape=umlActor;verticalLabelPosition=bottom;verticalAlign=top;html=1;outlineConnect=0;" vertex="1" parent="1">
          <mxGeometry x="-220" y="510" width="30" height="60" as="geometry" />
        </mxCell>
        <mxCell id="o08fIgoM3E5RgiDcFMRu-55" style="edgeStyle=orthogonalEdgeStyle;rounded=0;orthogonalLoop=1;jettySize=auto;html=1;entryX=0.5;entryY=1;entryDx=0;entryDy=0;" edge="1" parent="1" source="o08fIgoM3E5RgiDcFMRu-21" target="o08fIgoM3E5RgiDcFMRu-7">
          <mxGeometry relative="1" as="geometry">
            <Array as="points">
              <mxPoint x="-45" y="480" />
              <mxPoint x="-90" y="480" />
            </Array>
          </mxGeometry>
        </mxCell>
        <mxCell id="o08fIgoM3E5RgiDcFMRu-21" value="Mayowa" style="shape=umlActor;verticalLabelPosition=bottom;verticalAlign=top;html=1;outlineConnect=0;" vertex="1" parent="1">
          <mxGeometry x="-60" y="510" width="30" height="60" as="geometry" />
        </mxCell>
        <mxCell id="o08fIgoM3E5RgiDcFMRu-54" style="edgeStyle=orthogonalEdgeStyle;rounded=0;orthogonalLoop=1;jettySize=auto;html=1;entryX=0.5;entryY=1;entryDx=0;entryDy=0;" edge="1" parent="1" source="o08fIgoM3E5RgiDcFMRu-22" target="o08fIgoM3E5RgiDcFMRu-7">
          <mxGeometry relative="1" as="geometry">
            <Array as="points">
              <mxPoint x="-115" y="480" />
              <mxPoint x="-90" y="480" />
            </Array>
          </mxGeometry>
        </mxCell>
        <mxCell id="o08fIgoM3E5RgiDcFMRu-22" value="Kingsley" style="shape=umlActor;verticalLabelPosition=bottom;verticalAlign=top;html=1;outlineConnect=0;" vertex="1" parent="1">
          <mxGeometry x="-130" y="510" width="30" height="60" as="geometry" />
        </mxCell>
        <mxCell id="o08fIgoM3E5RgiDcFMRu-60" style="edgeStyle=orthogonalEdgeStyle;rounded=0;orthogonalLoop=1;jettySize=auto;html=1;entryX=0.5;entryY=1;entryDx=0;entryDy=0;" edge="1" parent="1" source="o08fIgoM3E5RgiDcFMRu-30" target="o08fIgoM3E5RgiDcFMRu-9">
          <mxGeometry relative="1" as="geometry">
            <Array as="points">
              <mxPoint x="436" y="480" />
              <mxPoint x="490" y="480" />
            </Array>
          </mxGeometry>
        </mxCell>
        <mxCell id="o08fIgoM3E5RgiDcFMRu-30" value="Pedahel Emmanuel Kojo" style="shape=umlActor;verticalLabelPosition=bottom;verticalAlign=top;html=1;outlineConnect=0;" vertex="1" parent="1">
          <mxGeometry x="421" y="510" width="30" height="60" as="geometry" />
        </mxCell>
        <mxCell id="o08fIgoM3E5RgiDcFMRu-61" style="edgeStyle=orthogonalEdgeStyle;rounded=0;orthogonalLoop=1;jettySize=auto;html=1;entryX=0.5;entryY=1;entryDx=0;entryDy=0;" edge="1" parent="1" source="o08fIgoM3E5RgiDcFMRu-31" target="o08fIgoM3E5RgiDcFMRu-9">
          <mxGeometry relative="1" as="geometry">
            <Array as="points">
              <mxPoint x="549" y="480" />
              <mxPoint x="490" y="480" />
            </Array>
          </mxGeometry>
        </mxCell>
        <mxCell id="o08fIgoM3E5RgiDcFMRu-31" value="SamuelAyirebi" style="shape=umlActor;verticalLabelPosition=bottom;verticalAlign=top;html=1;outlineConnect=0;" vertex="1" parent="1">
          <mxGeometry x="534" y="510" width="30" height="60" as="geometry" />
        </mxCell>
        <mxCell id="o08fIgoM3E5RgiDcFMRu-62" style="edgeStyle=orthogonalEdgeStyle;rounded=0;orthogonalLoop=1;jettySize=auto;html=1;entryX=0.5;entryY=1;entryDx=0;entryDy=0;" edge="1" parent="1" source="o08fIgoM3E5RgiDcFMRu-32" target="o08fIgoM3E5RgiDcFMRu-11">
          <mxGeometry relative="1" as="geometry">
            <Array as="points">
              <mxPoint x="665" y="480" />
              <mxPoint x="785" y="480" />
            </Array>
          </mxGeometry>
        </mxCell>
        <mxCell id="o08fIgoM3E5RgiDcFMRu-32" value="孙志远（Kris）" style="shape=umlActor;verticalLabelPosition=bottom;verticalAlign=top;html=1;outlineConnect=0;fillColor=#dae8fc;strokeColor=#6c8ebf;" vertex="1" parent="1">
          <mxGeometry x="650" y="510" width="30" height="60" as="geometry" />
        </mxCell>
        <mxCell id="o08fIgoM3E5RgiDcFMRu-63" style="edgeStyle=orthogonalEdgeStyle;rounded=0;orthogonalLoop=1;jettySize=auto;html=1;entryX=0.5;entryY=1;entryDx=0;entryDy=0;" edge="1" parent="1" source="o08fIgoM3E5RgiDcFMRu-33" target="o08fIgoM3E5RgiDcFMRu-11">
          <mxGeometry relative="1" as="geometry">
            <Array as="points">
              <mxPoint x="735" y="480" />
              <mxPoint x="785" y="480" />
            </Array>
          </mxGeometry>
        </mxCell>
        <mxCell id="o08fIgoM3E5RgiDcFMRu-33" value="劳兵兵" style="shape=umlActor;verticalLabelPosition=bottom;verticalAlign=top;html=1;outlineConnect=0;" vertex="1" parent="1">
          <mxGeometry x="720" y="510" width="30" height="60" as="geometry" />
        </mxCell>
        <mxCell id="o08fIgoM3E5RgiDcFMRu-64" style="edgeStyle=orthogonalEdgeStyle;rounded=0;orthogonalLoop=1;jettySize=auto;html=1;entryX=0.5;entryY=1;entryDx=0;entryDy=0;" edge="1" parent="1" source="o08fIgoM3E5RgiDcFMRu-34" target="o08fIgoM3E5RgiDcFMRu-11">
          <mxGeometry relative="1" as="geometry">
            <Array as="points">
              <mxPoint x="794" y="480" />
              <mxPoint x="785" y="480" />
            </Array>
          </mxGeometry>
        </mxCell>
        <mxCell id="o08fIgoM3E5RgiDcFMRu-34" value="汪旭" style="shape=umlActor;verticalLabelPosition=bottom;verticalAlign=top;html=1;outlineConnect=0;" vertex="1" parent="1">
          <mxGeometry x="779" y="510" width="30" height="60" as="geometry" />
        </mxCell>
        <mxCell id="o08fIgoM3E5RgiDcFMRu-65" style="edgeStyle=orthogonalEdgeStyle;rounded=0;orthogonalLoop=1;jettySize=auto;html=1;entryX=0.5;entryY=1;entryDx=0;entryDy=0;" edge="1" parent="1" source="o08fIgoM3E5RgiDcFMRu-35" target="o08fIgoM3E5RgiDcFMRu-11">
          <mxGeometry relative="1" as="geometry">
            <Array as="points">
              <mxPoint x="855" y="480" />
              <mxPoint x="785" y="480" />
            </Array>
          </mxGeometry>
        </mxCell>
        <mxCell id="o08fIgoM3E5RgiDcFMRu-35" value="徐嘉琪" style="shape=umlActor;verticalLabelPosition=bottom;verticalAlign=top;html=1;outlineConnect=0;" vertex="1" parent="1">
          <mxGeometry x="840" y="510" width="30" height="60" as="geometry" />
        </mxCell>
        <mxCell id="o08fIgoM3E5RgiDcFMRu-66" style="edgeStyle=orthogonalEdgeStyle;rounded=0;orthogonalLoop=1;jettySize=auto;html=1;entryX=0.5;entryY=1;entryDx=0;entryDy=0;" edge="1" parent="1" source="o08fIgoM3E5RgiDcFMRu-36" target="o08fIgoM3E5RgiDcFMRu-11">
          <mxGeometry relative="1" as="geometry">
            <Array as="points">
              <mxPoint x="915" y="480" />
              <mxPoint x="785" y="480" />
            </Array>
          </mxGeometry>
        </mxCell>
        <mxCell id="o08fIgoM3E5RgiDcFMRu-36" value="王文宇" style="shape=umlActor;verticalLabelPosition=bottom;verticalAlign=top;html=1;outlineConnect=0;" vertex="1" parent="1">
          <mxGeometry x="900" y="510" width="30" height="60" as="geometry" />
        </mxCell>
        <mxCell id="o08fIgoM3E5RgiDcFMRu-67" style="edgeStyle=orthogonalEdgeStyle;rounded=0;orthogonalLoop=1;jettySize=auto;html=1;entryX=0.5;entryY=1;entryDx=0;entryDy=0;" edge="1" parent="1" source="o08fIgoM3E5RgiDcFMRu-37" target="o08fIgoM3E5RgiDcFMRu-13">
          <mxGeometry relative="1" as="geometry">
            <Array as="points">
              <mxPoint x="1115" y="480" />
              <mxPoint x="1200" y="480" />
            </Array>
          </mxGeometry>
        </mxCell>
        <mxCell id="o08fIgoM3E5RgiDcFMRu-37" value="胡佳伟" style="shape=umlActor;verticalLabelPosition=bottom;verticalAlign=top;html=1;outlineConnect=0;fillColor=#dae8fc;strokeColor=#6c8ebf;" vertex="1" parent="1">
          <mxGeometry x="1100" y="510" width="30" height="60" as="geometry" />
        </mxCell>
        <mxCell id="o08fIgoM3E5RgiDcFMRu-68" style="edgeStyle=orthogonalEdgeStyle;rounded=0;orthogonalLoop=1;jettySize=auto;html=1;entryX=0.5;entryY=1;entryDx=0;entryDy=0;" edge="1" parent="1" source="o08fIgoM3E5RgiDcFMRu-38" target="o08fIgoM3E5RgiDcFMRu-13">
          <mxGeometry relative="1" as="geometry">
            <Array as="points">
              <mxPoint x="1175" y="480" />
              <mxPoint x="1200" y="480" />
            </Array>
          </mxGeometry>
        </mxCell>
        <mxCell id="o08fIgoM3E5RgiDcFMRu-38" value="李建军" style="shape=umlActor;verticalLabelPosition=bottom;verticalAlign=top;html=1;outlineConnect=0;" vertex="1" parent="1">
          <mxGeometry x="1160" y="510" width="30" height="60" as="geometry" />
        </mxCell>
        <mxCell id="o08fIgoM3E5RgiDcFMRu-69" style="edgeStyle=orthogonalEdgeStyle;rounded=0;orthogonalLoop=1;jettySize=auto;html=1;entryX=0.5;entryY=1;entryDx=0;entryDy=0;" edge="1" parent="1" source="o08fIgoM3E5RgiDcFMRu-39" target="o08fIgoM3E5RgiDcFMRu-13">
          <mxGeometry relative="1" as="geometry">
            <Array as="points">
              <mxPoint x="1235" y="480" />
              <mxPoint x="1200" y="480" />
            </Array>
          </mxGeometry>
        </mxCell>
        <mxCell id="o08fIgoM3E5RgiDcFMRu-39" value="孙进" style="shape=umlActor;verticalLabelPosition=bottom;verticalAlign=top;html=1;outlineConnect=0;" vertex="1" parent="1">
          <mxGeometry x="1220" y="510" width="30" height="60" as="geometry" />
        </mxCell>
        <mxCell id="o08fIgoM3E5RgiDcFMRu-70" style="edgeStyle=orthogonalEdgeStyle;rounded=0;orthogonalLoop=1;jettySize=auto;html=1;entryX=0.5;entryY=1;entryDx=0;entryDy=0;" edge="1" parent="1" source="o08fIgoM3E5RgiDcFMRu-40" target="o08fIgoM3E5RgiDcFMRu-13">
          <mxGeometry relative="1" as="geometry">
            <Array as="points">
              <mxPoint x="1295" y="480" />
              <mxPoint x="1200" y="480" />
            </Array>
          </mxGeometry>
        </mxCell>
        <mxCell id="o08fIgoM3E5RgiDcFMRu-40" value="袁志鑫" style="shape=umlActor;verticalLabelPosition=bottom;verticalAlign=top;html=1;outlineConnect=0;" vertex="1" parent="1">
          <mxGeometry x="1280" y="510" width="30" height="60" as="geometry" />
        </mxCell>
        <mxCell id="o08fIgoM3E5RgiDcFMRu-56" style="edgeStyle=orthogonalEdgeStyle;rounded=0;orthogonalLoop=1;jettySize=auto;html=1;entryX=0.5;entryY=1;entryDx=0;entryDy=0;" edge="1" parent="1" source="o08fIgoM3E5RgiDcFMRu-41" target="o08fIgoM3E5RgiDcFMRu-7">
          <mxGeometry relative="1" as="geometry">
            <Array as="points">
              <mxPoint x="35" y="480" />
              <mxPoint x="-90" y="480" />
            </Array>
          </mxGeometry>
        </mxCell>
        <mxCell id="o08fIgoM3E5RgiDcFMRu-41" value="顾丰荣（Aiden）" style="shape=umlActor;verticalLabelPosition=bottom;verticalAlign=top;html=1;outlineConnect=0;fillColor=#dae8fc;strokeColor=#6c8ebf;" vertex="1" parent="1">
          <mxGeometry x="20" y="510" width="30" height="60" as="geometry" />
        </mxCell>
        <mxCell id="o08fIgoM3E5RgiDcFMRu-57" style="edgeStyle=orthogonalEdgeStyle;rounded=0;orthogonalLoop=1;jettySize=auto;html=1;entryX=0.5;entryY=1;entryDx=0;entryDy=0;" edge="1" parent="1" source="o08fIgoM3E5RgiDcFMRu-42" target="o08fIgoM3E5RgiDcFMRu-7">
          <mxGeometry relative="1" as="geometry">
            <Array as="points">
              <mxPoint x="125" y="480" />
              <mxPoint x="-90" y="480" />
            </Array>
          </mxGeometry>
        </mxCell>
        <mxCell id="o08fIgoM3E5RgiDcFMRu-42" value="余超（Fisher）" style="shape=umlActor;verticalLabelPosition=bottom;verticalAlign=top;html=1;outlineConnect=0;fillColor=#dae8fc;strokeColor=#6c8ebf;" vertex="1" parent="1">
          <mxGeometry x="110" y="510" width="30" height="60" as="geometry" />
        </mxCell>
        <mxCell id="o08fIgoM3E5RgiDcFMRu-58" style="edgeStyle=orthogonalEdgeStyle;rounded=0;orthogonalLoop=1;jettySize=auto;html=1;entryX=0.5;entryY=1;entryDx=0;entryDy=0;" edge="1" parent="1" source="o08fIgoM3E5RgiDcFMRu-43" target="o08fIgoM3E5RgiDcFMRu-7">
          <mxGeometry relative="1" as="geometry">
            <Array as="points">
              <mxPoint x="210" y="480" />
              <mxPoint x="-90" y="480" />
            </Array>
          </mxGeometry>
        </mxCell>
        <mxCell id="o08fIgoM3E5RgiDcFMRu-43" value="陈勇（Ethan）" style="shape=umlActor;verticalLabelPosition=bottom;verticalAlign=top;html=1;outlineConnect=0;" vertex="1" parent="1">
          <mxGeometry x="195" y="510" width="30" height="60" as="geometry" />
        </mxCell>
        <mxCell id="o08fIgoM3E5RgiDcFMRu-59" style="edgeStyle=orthogonalEdgeStyle;rounded=0;orthogonalLoop=1;jettySize=auto;html=1;entryX=0.5;entryY=1;entryDx=0;entryDy=0;" edge="1" parent="1" source="o08fIgoM3E5RgiDcFMRu-44" target="o08fIgoM3E5RgiDcFMRu-7">
          <mxGeometry relative="1" as="geometry">
            <Array as="points">
              <mxPoint x="295" y="480" />
              <mxPoint x="-90" y="480" />
            </Array>
          </mxGeometry>
        </mxCell>
        <mxCell id="o08fIgoM3E5RgiDcFMRu-44" value="黑晓冰（Watson）" style="shape=umlActor;verticalLabelPosition=bottom;verticalAlign=top;html=1;outlineConnect=0;" vertex="1" parent="1">
          <mxGeometry x="280" y="510" width="30" height="60" as="geometry" />
        </mxCell>
      </root>
    </mxGraphModel>
  </diagram>
</mxfile>
